<?xml version="1.0" encoding="UTF-8" standalone="no"?>
<svg
   xmlns:dc="http://purl.org/dc/elements/1.1/"
   xmlns:cc="http://creativecommons.org/ns#"
   xmlns:rdf="http://www.w3.org/1999/02/22-rdf-syntax-ns#"
   xmlns:svg="http://www.w3.org/2000/svg"
   xmlns="http://www.w3.org/2000/svg"
   xmlns:sodipodi="http://sodipodi.sourceforge.net/DTD/sodipodi-0.dtd"
   xmlns:inkscape="http://www.inkscape.org/namespaces/inkscape"
   version="1.1"
   x="0px"
   y="0px"
   viewBox="0 0 100 125"
   enable-background="new 0 0 100 100"
   xml:space="preserve"
   id="svg3336"
   inkscape:version="0.91 r13725"
   sodipodi:docname="menu.svg"
   inkscape:export-filename="C:\Users\Dan Salmon\Google Drive\Code\cranyons\assets\images\menu5.png"
   inkscape:export-xdpi="90"
   inkscape:export-ydpi="90"><metadata
     id="metadata3344"><rdf:RDF><cc:Work
         rdf:about=""><dc:format>image/svg+xml</dc:format><dc:type
           rdf:resource="http://purl.org/dc/dcmitype/StillImage" /><dc:title></dc:title></cc:Work></rdf:RDF></metadata><defs
     id="defs3342" /><sodipodi:namedview
     pagecolor="#00ffff"
     bordercolor="#666666"
     borderopacity="1"
     objecttolerance="10"
     gridtolerance="10"
     guidetolerance="10"
     inkscape:pageopacity="0"
     inkscape:pageshadow="2"
     inkscape:window-width="1600"
     inkscape:window-height="838"
     id="namedview3340"
     showgrid="false"
     units="px"
     inkscape:zoom="5.352"
     inkscape:cx="47.15994"
     inkscape:cy="62.5"
     inkscape:window-x="-8"
     inkscape:window-y="-8"
     inkscape:window-maximized="1"
     inkscape:current-layer="svg3336" /><path
     d="M64.3,29L51.2,5L33.8,40.1l9.4,43.3L51.6,95l14.6-52.9L64.3,29z M47,31.7l4.6-20.3l9.5,17.5L47,31.7z M60.6,30.9L54,41.4  l-6.6-7.9L60.6,30.9z M45.6,34.1l6.3,7.5l-13.9-2L45.6,34.1z M55,43.7l8.1-0.8L52.4,81.9L55,43.7z M55.9,41.8l6.1-9.7l1.3,9  L55.9,41.8z M44.9,32.4l-6.7,5l10.4-21.1L44.9,32.4z M53.2,43.7l-3,44.6l-4.3-6.1l-8.9-40.8L53.2,43.7z"
     id="path3338" /></svg>