<?xml version="1.0" encoding="UTF-8" standalone="no"?>
<svg
   xmlns:dc="http://purl.org/dc/elements/1.1/"
   xmlns:cc="http://creativecommons.org/ns#"
   xmlns:rdf="http://www.w3.org/1999/02/22-rdf-syntax-ns#"
   xmlns:svg="http://www.w3.org/2000/svg"
   xmlns="http://www.w3.org/2000/svg"
   xmlns:sodipodi="http://sodipodi.sourceforge.net/DTD/sodipodi-0.dtd"
   xmlns:inkscape="http://www.inkscape.org/namespaces/inkscape"
   version="1.1"
   x="0px"
   y="0px"
   viewBox="0 0 34.510911 90.777283"
   enable-background="new 0 0 100 100"
   xml:space="preserve"
   id="svg3336"
   inkscape:version="0.91 r13725"
   sodipodi:docname="menu4.svg"
   inkscape:export-filename="C:\Users\Dan Salmon\Google Drive\Code\cranyons\assets\images\menu5.png"
   inkscape:export-xdpi="90"
   inkscape:export-ydpi="90"
   width="34.51091"
   height="90.777283"><metadata
     id="metadata3344"><rdf:RDF><cc:Work
         rdf:about=""><dc:format>image/svg+xml</dc:format><dc:type
           rdf:resource="http://purl.org/dc/dcmitype/StillImage" /><dc:title></dc:title></cc:Work></rdf:RDF></metadata><defs
     id="defs3342" /><sodipodi:namedview
     pagecolor="#00ffff"
     bordercolor="#666666"
     borderopacity="1"
     objecttolerance="10"
     gridtolerance="10"
     guidetolerance="10"
     inkscape:pageopacity="0"
     inkscape:pageshadow="2"
     inkscape:window-width="1600"
     inkscape:window-height="838"
     id="namedview3340"
     showgrid="false"
     units="px"
     inkscape:zoom="5.352"
     inkscape:cx="10.370404"
     inkscape:cy="33.434232"
     inkscape:window-x="-8"
     inkscape:window-y="-8"
     inkscape:window-maximized="1"
     inkscape:current-layer="svg3336"
     fit-margin-top="0"
     fit-margin-left="0"
     fit-margin-right="0"
     fit-margin-bottom="0" /><path
     d="M 30.5,24.777279 17.4,0.7772791 0,35.877279 l 9.4000004,43.3 8.3999996,11.6 14.6,-52.9 -1.9,-13.1 z m -17.3,2.7 4.6,-20.2999999 9.5,17.4999999 -14.1,2.8 z m 13.6,-0.8 -6.6,10.5 -6.6,-7.9 13.2,-2.6 z m -15,3.2 6.3,7.5 -13.9,-2 7.6,-5.5 z m 9.4,9.6 8.1,-0.8 -10.7,39 2.6,-38.2 z m 0.9,-1.9 6.1,-9.7 1.3,9 -7.4,0.7 z m -11,-9.4 -6.7,5 10.4,-21.1 -3.7,16.1 z m 8.3,11.3 -3,44.6 -4.3,-6.1 -8.9,-40.8 16.2,2.3 z"
     id="path3338"
     inkscape:connector-curvature="0"
     style="fill:#ffffff" /><path
     d="m 32.610911,24 -13.1,-24 -17.3999993,35.1 9.3999993,43.300003 8.4,11.6 14.6,-52.900003 -1.9,-13.1 z m -17.3,2.7 4.6,-20.2999998 9.5,17.4999998 -14.1,2.8 z m 13.6,-0.8 -6.6,10.5 -6.6,-7.9 13.2,-2.6 z m -15,3.2 6.3,7.5 -13.8999993,-2 7.5999993,-5.5 z m 9.4,9.6 8.1,-0.8 -10.7,39.000003 2.6,-38.200003 z m 0.9,-1.9 6.1,-9.7 1.3,9 -7.4,0.7 z m -11,-9.4 -6.6999993,5 10.3999993,-21.1 -3.7,16.1 z m 8.3,11.3 -3,44.600003 -4.3,-6.1 L 5.3109117,36.4 21.510911,38.7 Z"
     id="path3338-4"
     inkscape:connector-curvature="0"
     style="fill:#000000" /></svg>